<svg xmlns="http://www.w3.org/2000/svg" viewBox="0 0 384 64" role="img" aria-label="Running black cat sprite strip">
  <defs>
    <style>
      .cat { fill:#0a0a0a; }
    </style>
  </defs>
  <!-- frame 1 -->
  <g transform="translate(0 0)">
    <ellipse class="cat" cx="28" cy="30" rx="14" ry="8"/>
    <circle class="cat" cx="43" cy="25" r="5"/>
    <polygon class="cat" points="40,21 43,16 46,21"/>
    <rect class="cat" x="15" y="18" width="10" height="3" rx="2" transform="rotate(24 20 19)"/>
    <rect class="cat" x="34" y="36" width="3" height="10" rx="2" transform="rotate(26 35.5 41)"/>
    <rect class="cat" x="28" y="36" width="3" height="10" rx="2" transform="rotate(-24 29.5 41)"/>
    <rect class="cat" x="22" y="36" width="3" height="10" rx="2" transform="rotate(-24 23.5 41)"/>
    <rect class="cat" x="16" y="36" width="3" height="10" rx="2" transform="rotate(26 17.5 41)"/>
  </g>
  <!-- frame 2 -->
  <g transform="translate(64 0)">
    <ellipse class="cat" cx="28" cy="29" rx="14" ry="8"/>
    <circle class="cat" cx="43" cy="24" r="5"/>
    <polygon class="cat" points="40,20 43,15 46,20"/>
    <rect class="cat" x="15" y="18" width="10" height="3" rx="2" transform="rotate(-8 20 19)"/>
    <rect class="cat" x="34" y="35" width="3" height="11" rx="2" transform="rotate(-22 35.5 40.5)"/>
    <rect class="cat" x="28" y="35" width="3" height="11" rx="2" transform="rotate(22 29.5 40.5)"/>
    <rect class="cat" x="22" y="35" width="3" height="11" rx="2" transform="rotate(22 23.5 40.5)"/>
    <rect class="cat" x="16" y="35" width="3" height="11" rx="2" transform="rotate(-22 17.5 40.5)"/>
  </g>
  <!-- frame 3 -->
  <g transform="translate(128 0)">
    <ellipse class="cat" cx="28" cy="30" rx="14" ry="8"/>
    <circle class="cat" cx="43" cy="25" r="5"/>
    <polygon class="cat" points="40,21 43,16 46,21"/>
    <rect class="cat" x="15" y="18" width="10" height="3" rx="2" transform="rotate(-24 20 19)"/>
    <rect class="cat" x="34" y="36" width="3" height="10" rx="2" transform="rotate(-26 35.5 41)"/>
    <rect class="cat" x="28" y="36" width="3" height="10" rx="2" transform="rotate(24 29.5 41)"/>
    <rect class="cat" x="22" y="36" width="3" height="10" rx="2" transform="rotate(24 23.5 41)"/>
    <rect class="cat" x="16" y="36" width="3" height="10" rx="2" transform="rotate(-26 17.5 41)"/>
  </g>
  <!-- frame 4 -->
  <g transform="translate(192 0)">
    <ellipse class="cat" cx="28" cy="29" rx="14" ry="8"/>
    <circle class="cat" cx="43" cy="24" r="5"/>
    <polygon class="cat" points="40,20 43,15 46,20"/>
    <rect class="cat" x="15" y="18" width="10" height="3" rx="2" transform="rotate(8 20 19)"/>
    <rect class="cat" x="34" y="35" width="3" height="11" rx="2" transform="rotate(22 35.5 40.5)"/>
    <rect class="cat" x="28" y="35" width="3" height="11" rx="2" transform="rotate(-22 29.5 40.5)"/>
    <rect class="cat" x="22" y="35" width="3" height="11" rx="2" transform="rotate(-22 23.5 40.5)"/>
    <rect class="cat" x="16" y="35" width="3" height="11" rx="2" transform="rotate(22 17.5 40.5)"/>
  </g>
  <!-- frame 5 -->
  <g transform="translate(256 0)">
    <ellipse class="cat" cx="28" cy="30" rx="14" ry="8"/>
    <circle class="cat" cx="43" cy="25" r="5"/>
    <polygon class="cat" points="40,21 43,16 46,21"/>
    <rect class="cat" x="15" y="18" width="10" height="3" rx="2" transform="rotate(18 20 19)"/>
    <rect class="cat" x="34" y="36" width="3" height="10" rx="2" transform="rotate(14 35.5 41)"/>
    <rect class="cat" x="28" y="36" width="3" height="10" rx="2" transform="rotate(-14 29.5 41)"/>
    <rect class="cat" x="22" y="36" width="3" height="10" rx="2" transform="rotate(-14 23.5 41)"/>
    <rect class="cat" x="16" y="36" width="3" height="10" rx="2" transform="rotate(14 17.5 41)"/>
  </g>
  <!-- frame 6 -->
  <g transform="translate(320 0)">
    <ellipse class="cat" cx="28" cy="29" rx="14" ry="8"/>
    <circle class="cat" cx="43" cy="24" r="5"/>
    <polygon class="cat" points="40,20 43,15 46,20"/>
    <rect class="cat" x="15" y="18" width="10" height="3" rx="2" transform="rotate(-18 20 19)"/>
    <rect class="cat" x="34" y="35" width="3" height="11" rx="2" transform="rotate(-14 35.5 40.5)"/>
    <rect class="cat" x="28" y="35" width="3" height="11" rx="2" transform="rotate(14 29.5 40.5)"/>
    <rect class="cat" x="22" y="35" width="3" height="11" rx="2" transform="rotate(14 23.5 40.5)"/>
    <rect class="cat" x="16" y="35" width="3" height="11" rx="2" transform="rotate(-14 17.5 40.5)"/>
  </g>
</svg>
